<svg width="18" height="11" viewBox="0 0 18 11" fill="none" xmlns="http://www.w3.org/2000/svg">
<path d="M0.888889 2.16667H16.8889C17.1246 2.16667 17.3507 2.07887 17.5174 1.92259C17.6841 1.76631 17.7778 1.55435 17.7778 1.33333C17.7778 1.11232 17.6841 0.900358 17.5174 0.744078C17.3507 0.587798 17.1246 0.5 16.8889 0.5H0.888889C0.653141 0.5 0.427049 0.587798 0.26035 0.744078C0.0936505 0.900358 0 1.11232 0 1.33333C0 1.55435 0.0936505 1.76631 0.26035 1.92259C0.427049 2.07887 0.653141 2.16667 0.888889 2.16667ZM16.8889 8.83333H0.888889C0.653141 8.83333 0.427049 8.92113 0.26035 9.07741C0.0936505 9.23369 0 9.44565 0 9.66667C0 9.88768 0.0936505 10.0996 0.26035 10.2559C0.427049 10.4122 0.653141 10.5 0.888889 10.5H16.8889C17.1246 10.5 17.3507 10.4122 17.5174 10.2559C17.6841 10.0996 17.7778 9.88768 17.7778 9.66667C17.7778 9.44565 17.6841 9.23369 17.5174 9.07741C17.3507 8.92113 17.1246 8.83333 16.8889 8.83333ZM16.8889 4.66667H0.888889C0.653141 4.66667 0.427049 4.75446 0.26035 4.91074C0.0936505 5.06702 0 5.27899 0 5.5C0 5.72101 0.0936505 5.93297 0.26035 6.08926C0.427049 6.24554 0.653141 6.33333 0.888889 6.33333H16.8889C17.1246 6.33333 17.3507 6.24554 17.5174 6.08926C17.6841 5.93297 17.7778 5.72101 17.7778 5.5C17.7778 5.27899 17.6841 5.06702 17.5174 4.91074C17.3507 4.75446 17.1246 4.66667 16.8889 4.66667Z" fill="white"/>
</svg>
