<svg width="25" height="25" viewBox="0 0 25 25" fill="none" xmlns="http://www.w3.org/2000/svg">
<path fill-rule="evenodd" clip-rule="evenodd" d="M12.3335 3.5C9.8891 3.5 9.5831 3.5102 8.6231 3.554C7.6649 3.5978 7.0103 3.7502 6.4379 3.9728C5.8379 4.1984 5.2937 4.5524 4.8437 5.0108C4.38603 5.46028 4.03181 6.0041 3.8057 6.6044C3.5843 7.1768 3.4313 7.832 3.3875 8.7902C3.3443 9.7496 3.3335 10.055 3.3335 12.5C3.3335 14.945 3.3437 15.2504 3.3875 16.2104C3.4313 17.1686 3.5837 17.8232 3.8063 18.3956C4.0319 18.9956 4.3859 19.5398 4.8443 19.9898C5.29379 20.4475 5.8376 20.8017 6.4379 21.0278C7.0103 21.2498 7.6649 21.4022 8.6231 21.446C9.5831 21.4898 9.8891 21.5 12.3335 21.5C14.7779 21.5 15.0839 21.4898 16.0439 21.446C17.0021 21.4022 17.6567 21.2498 18.2291 21.0272C18.8291 20.8016 19.3733 20.4476 19.8233 19.9892C20.281 19.5397 20.6352 18.9959 20.8613 18.3956C21.0833 17.8232 21.2357 17.1686 21.2795 16.2104C21.3233 15.2504 21.3335 14.9444 21.3335 12.5C21.3335 10.0556 21.3233 9.7496 21.2795 8.7896C21.2357 7.8314 21.0833 7.1768 20.8607 6.6044C20.6347 6.00384 20.2805 5.45979 19.8227 5.0102C19.3732 4.55253 18.8294 4.19831 18.2291 3.9722C17.6567 3.7508 17.0015 3.5978 16.0433 3.554C15.0839 3.5108 14.7785 3.5 12.3335 3.5ZM12.3335 5.1218C14.7365 5.1218 15.0215 5.1308 15.9707 5.174C16.8479 5.2142 17.3243 5.36 17.6417 5.4842C18.0617 5.6468 18.3617 5.8424 18.6767 6.1568C18.9917 6.4718 19.1867 6.7718 19.3493 7.1918C19.4729 7.5092 19.6193 7.9856 19.6595 8.8628C19.7027 9.812 19.7117 10.097 19.7117 12.5C19.7117 14.903 19.7027 15.188 19.6595 16.1372C19.6193 17.0144 19.4735 17.4908 19.3493 17.8082C19.2053 18.1991 18.9754 18.5528 18.6767 18.8432C18.3863 19.142 18.0327 19.3718 17.6417 19.5158C17.3243 19.6394 16.8479 19.7858 15.9707 19.826C15.0215 19.8692 14.7371 19.8782 12.3335 19.8782C9.9299 19.8782 9.6455 19.8692 8.6963 19.826C7.8191 19.7858 7.3427 19.64 7.0253 19.5158C6.63437 19.3718 6.2807 19.1419 5.9903 18.8432C5.6916 18.5528 5.46177 18.1991 5.3177 17.8082C5.1941 17.4908 5.0477 17.0144 5.0075 16.1372C4.9643 15.188 4.9553 14.903 4.9553 12.5C4.9553 10.097 4.9643 9.812 5.0075 8.8628C5.0477 7.9856 5.1935 7.5092 5.3177 7.1918C5.4803 6.7718 5.6759 6.4718 5.9903 6.1568C6.28066 5.85803 6.63434 5.62819 7.0253 5.4842C7.3427 5.3606 7.8191 5.2142 8.6963 5.174C9.6455 5.1308 9.9305 5.1218 12.3335 5.1218V5.1218Z" fill="white"/>
<path fill-rule="evenodd" clip-rule="evenodd" d="M12.3335 15.5028C11.9392 15.5028 11.5487 15.4251 11.1843 15.2742C10.82 15.1233 10.4889 14.9021 10.2101 14.6232C9.93122 14.3444 9.71002 14.0133 9.55911 13.649C9.40819 13.2846 9.33052 12.8941 9.33052 12.4998C9.33052 12.1054 9.40819 11.7149 9.55911 11.3506C9.71002 10.9862 9.93122 10.6552 10.2101 10.3763C10.4889 10.0975 10.82 9.87629 11.1843 9.72538C11.5487 9.57446 11.9392 9.49679 12.3335 9.49679C13.13 9.49679 13.8938 9.81318 14.457 10.3763C15.0201 10.9395 15.3365 11.7033 15.3365 12.4998C15.3365 13.2962 15.0201 14.0601 14.457 14.6232C13.8938 15.1864 13.13 15.5028 12.3335 15.5028V15.5028ZM12.3335 7.87379C11.1066 7.87379 9.92999 8.36117 9.06244 9.22871C8.1949 10.0963 7.70752 11.2729 7.70752 12.4998C7.70752 13.7267 8.1949 14.9033 9.06244 15.7709C9.92999 16.6384 11.1066 17.1258 12.3335 17.1258C13.5604 17.1258 14.737 16.6384 15.6046 15.7709C16.4721 14.9033 16.9595 13.7267 16.9595 12.4998C16.9595 11.2729 16.4721 10.0963 15.6046 9.22871C14.737 8.36117 13.5604 7.87379 12.3335 7.87379V7.87379ZM18.3053 7.78979C18.3053 8.0798 18.1901 8.35794 17.985 8.56301C17.78 8.76808 17.5018 8.88329 17.2118 8.88329C16.9218 8.88329 16.6437 8.76808 16.4386 8.56301C16.2335 8.35794 16.1183 8.0798 16.1183 7.78979C16.1183 7.49977 16.2335 7.22164 16.4386 7.01657C16.6437 6.8115 16.9218 6.69629 17.2118 6.69629C17.5018 6.69629 17.78 6.8115 17.985 7.01657C18.1901 7.22164 18.3053 7.49977 18.3053 7.78979" fill="white"/>
</svg>
