<svg width="48" height="48" viewBox="0 0 48 48" fill="none" xmlns="http://www.w3.org/2000/svg">
<path d="M39.9049 15.84C39.9293 16.1926 39.9293 16.5452 39.9293 16.9011C39.9293 27.7449 31.6742 40.2511 16.5793 40.2511V40.2446C12.1203 40.2511 7.75381 38.9738 4 36.5655C4.64839 36.6435 5.30002 36.6825 5.95328 36.6842C9.64859 36.6874 13.2383 35.4475 16.1454 33.1644C12.6338 33.0977 9.55434 30.8081 8.47857 27.4654C9.70871 27.7026 10.9762 27.6539 12.1836 27.324C8.35507 26.5505 5.60065 23.1867 5.60065 19.2801C5.60065 19.2444 5.60065 19.2103 5.60065 19.1761C6.74142 19.8115 8.01869 20.1642 9.32521 20.2032C5.71928 17.7932 4.60776 12.9962 6.78529 9.24561C10.9519 14.3726 17.0993 17.4894 23.6986 17.8192C23.0372 14.9689 23.9407 11.9822 26.0727 9.9785C29.378 6.87145 34.5765 7.0307 37.6835 10.3344C39.5214 9.972 41.283 9.29761 42.895 8.3421C42.2823 10.2418 41.0002 11.8554 39.2874 12.8808C40.9141 12.689 42.5034 12.2535 44 11.5889C42.8982 13.2399 41.5105 14.6781 39.9049 15.84Z" fill="white"/>
</svg>
