<svg width="49" height="48" viewBox="0 0 49 48" fill="none" xmlns="http://www.w3.org/2000/svg">
<path fill-rule="evenodd" clip-rule="evenodd" d="M24.5 6C19.6112 6 18.9992 6.0204 17.0792 6.108C15.1628 6.1956 13.8536 6.5004 12.7088 6.9456C11.5088 7.3968 10.4204 8.1048 9.5204 9.0216C8.60507 9.92056 7.89663 11.0082 7.4444 12.2088C7.0016 13.3536 6.6956 14.664 6.608 16.5804C6.5216 18.4992 6.5 19.11 6.5 24C6.5 28.89 6.5204 29.5008 6.608 31.4208C6.6956 33.3372 7.0004 34.6464 7.4456 35.7912C7.8968 36.9912 8.6048 38.0796 9.5216 38.9796C10.4206 39.8949 11.5082 40.6033 12.7088 41.0556C13.8536 41.4996 15.1628 41.8044 17.0792 41.892C18.9992 41.9796 19.6112 42 24.5 42C29.3888 42 30.0008 41.9796 31.9208 41.892C33.8372 41.8044 35.1464 41.4996 36.2912 41.0544C37.4912 40.6032 38.5796 39.8952 39.4796 38.9784C40.3949 38.0794 41.1034 36.9918 41.5556 35.7912C41.9996 34.6464 42.3044 33.3372 42.392 31.4208C42.4796 29.5008 42.5 28.8888 42.5 24C42.5 19.1112 42.4796 18.4992 42.392 16.5792C42.3044 14.6628 41.9996 13.3536 41.5544 12.2088C41.1025 11.0077 40.394 9.91959 39.4784 9.0204C38.5794 8.10507 37.4918 7.39663 36.2912 6.9444C35.1464 6.5016 33.836 6.1956 31.9196 6.108C30.0008 6.0216 29.39 6 24.5 6ZM24.5 9.2436C29.306 9.2436 29.876 9.2616 31.7744 9.348C33.5288 9.4284 34.4816 9.72 35.1164 9.9684C35.9564 10.2936 36.5564 10.6848 37.1864 11.3136C37.8164 11.9436 38.2064 12.5436 38.5316 13.3836C38.7788 14.0184 39.0716 14.9712 39.152 16.7256C39.2384 18.624 39.2564 19.194 39.2564 24C39.2564 28.806 39.2384 29.376 39.152 31.2744C39.0716 33.0288 38.78 33.9816 38.5316 34.6164C38.2435 35.3983 37.7839 36.1056 37.1864 36.6864C36.6057 37.284 35.8983 37.7437 35.1164 38.0316C34.4816 38.2788 33.5288 38.5716 31.7744 38.652C29.876 38.7384 29.3072 38.7564 24.5 38.7564C19.6928 38.7564 19.124 38.7384 17.2256 38.652C15.4712 38.5716 14.5184 38.28 13.8836 38.0316C13.1017 37.7435 12.3944 37.2839 11.8136 36.6864C11.2162 36.1055 10.7566 35.3982 10.4684 34.6164C10.2212 33.9816 9.9284 33.0288 9.848 31.2744C9.7616 29.376 9.7436 28.806 9.7436 24C9.7436 19.194 9.7616 18.624 9.848 16.7256C9.9284 14.9712 10.22 14.0184 10.4684 13.3836C10.7936 12.5436 11.1848 11.9436 11.8136 11.3136C12.3943 10.7161 13.1017 10.2564 13.8836 9.9684C14.5184 9.7212 15.4712 9.4284 17.2256 9.348C19.124 9.2616 19.694 9.2436 24.5 9.2436Z" fill="black"/>
<path fill-rule="evenodd" clip-rule="evenodd" d="M24.5 30.0056C23.7113 30.0056 22.9303 29.8502 22.2016 29.5484C21.473 29.2466 20.8109 28.8042 20.2532 28.2465C19.6955 27.6888 19.2531 27.0267 18.9512 26.298C18.6494 25.5693 18.494 24.7883 18.494 23.9996C18.494 23.2109 18.6494 22.4299 18.9512 21.7012C19.2531 20.9725 19.6955 20.3104 20.2532 19.7527C20.8109 19.195 21.473 18.7526 22.2016 18.4508C22.9303 18.1489 23.7113 17.9936 24.5 17.9936C26.0929 17.9936 27.6206 18.6264 28.7469 19.7527C29.8733 20.879 30.506 22.4067 30.506 23.9996C30.506 25.5925 29.8733 27.1201 28.7469 28.2465C27.6206 29.3728 26.0929 30.0056 24.5 30.0056ZM24.5 14.7476C22.0463 14.7476 19.693 15.7223 17.9579 17.4574C16.2228 19.1925 15.248 21.5458 15.248 23.9996C15.248 26.4534 16.2228 28.8066 17.9579 30.5417C19.693 32.2768 22.0463 33.2516 24.5 33.2516C26.9538 33.2516 29.3071 32.2768 31.0422 30.5417C32.7773 28.8066 33.752 26.4534 33.752 23.9996C33.752 21.5458 32.7773 19.1925 31.0422 17.4574C29.3071 15.7223 26.9538 14.7476 24.5 14.7476ZM36.4436 14.5796C36.4436 15.1596 36.2132 15.7159 35.8031 16.126C35.3929 16.5362 34.8367 16.7666 34.2566 16.7666C33.6766 16.7666 33.1203 16.5362 32.7102 16.126C32.3001 15.7159 32.0696 15.1596 32.0696 14.5796C32.0696 13.9995 32.3001 13.4433 32.7102 13.0331C33.1203 12.623 33.6766 12.3926 34.2566 12.3926C34.8367 12.3926 35.3929 12.623 35.8031 13.0331C36.2132 13.4433 36.4436 13.9995 36.4436 14.5796Z" fill="black"/>
</svg>
