<?xml version="1.0" encoding="utf-8"?>
<!-- Generator: Adobe Illustrator 16.0.0, SVG Export Plug-In . SVG Version: 6.00 Build 0)  -->
<!DOCTYPE svg PUBLIC "-//W3C//DTD SVG 1.1//EN" "http://www.w3.org/Graphics/SVG/1.1/DTD/svg11.dtd">
<svg version="1.1" id="Layer_1" xmlns="http://www.w3.org/2000/svg" xmlns:xlink="http://www.w3.org/1999/xlink" x="0px" y="0px"
	 width="403.965px" height="404.925px" viewBox="0 0 403.965 404.925" enable-background="new 0 0 403.965 404.925"
	 xml:space="preserve">
<path fill="#FFFFFF" d="M228.185,200.9l163.701,163.701c2.479,2.48,2.479,4.961,4.961,7.439c0,2.479,2.479,4.961,2.479,7.439
	c0,2.48,0,4.961-2.479,7.441c0,2.48-2.48,4.961-4.961,7.439c-2.48,2.48-4.961,4.961-7.441,4.961c-2.479,0-4.961,2.48-7.439,2.48
	c-2.48,0-4.961,0-7.44-2.48c-2.479,0-4.961-2.48-7.439-4.961L198.422,230.662L34.721,394.363c-2.48,2.48-4.961,4.961-7.44,4.961
	c-2.479,0-4.961,2.48-7.439,2.48c-2.48,0-4.961,0-7.44-2.48c-2.479,0-4.961-2.48-7.439-4.961C2.48,391.882,0,389.402,0,386.923
	v-7.441c0,0,0-4.961,2.479-7.439c0-2.48,2.48-4.961,4.961-7.439l163.7-163.701L7.44,37.201c-2.479-2.48-4.961-4.961-4.961-7.439
	C2.479,27.281,0,24.801,0,22.32c0-2.479,0-4.961,2.479-7.439c0-2.48,2.48-4.961,4.961-7.439c2.48-2.48,4.961-2.48,7.44-4.961
	C17.359,0,19.842,0,22.32,0c2.48,0,4.961,0,7.44,2.48c2.479,0,4.961,2.48,7.439,4.961l163.701,163.701L364.603,7.441
	c2.479-2.48,4.961-4.961,7.44-4.961h7.439c2.48,0,4.961,0,7.44,2.48c2.479,0,4.961,2.479,7.44,4.961
	c2.48,2.48,4.961,4.961,4.961,7.438c0,2.48,2.48,4.961,2.48,7.441s0,4.961-2.48,7.441c0,2.48-2.479,4.961-4.961,7.439L228.185,200.9
	z"/>
</svg>
