<svg width="49" height="48" viewBox="0 0 49 48" fill="none" xmlns="http://www.w3.org/2000/svg">
<path d="M40.4049 15.8395C40.4293 16.1921 40.4293 16.5447 40.4293 16.9006C40.4293 27.7444 32.1742 40.2506 17.0793 40.2506V40.2441C12.6203 40.2506 8.25381 38.9733 4.5 36.565C5.14839 36.643 5.80002 36.682 6.45328 36.6837C10.1486 36.6869 13.7383 35.447 16.6454 33.1639C13.1338 33.0972 10.0543 30.8076 8.97857 27.4649C10.2087 27.7022 11.4762 27.6534 12.6836 27.3235C8.85507 26.55 6.10065 23.1862 6.10065 19.2797C6.10065 19.2439 6.10065 19.2098 6.10065 19.1757C7.24142 19.811 8.51869 20.1637 9.82521 20.2027C6.21928 17.7928 5.10776 12.9957 7.28529 9.24512C11.4519 14.3721 17.5993 17.4889 24.1986 17.8188C23.5372 14.9685 24.4407 11.9817 26.5727 9.97801C29.878 6.87096 35.0765 7.03021 38.1835 10.3339C40.0214 9.97151 41.783 9.29712 43.395 8.34161C42.7823 10.2413 41.5002 11.8549 39.7874 12.8803C41.4141 12.6886 43.0034 12.253 44.5 11.5884C43.3982 13.2394 42.0105 14.6776 40.4049 15.8395Z" fill="black"/>
</svg>
