<svg width="25" height="25" viewBox="0 0 25 25" fill="none" xmlns="http://www.w3.org/2000/svg">
<path d="M12.3696 3.65095C15.3066 3.65095 15.6546 3.66195 16.8146 3.71495C17.512 3.72307 18.2028 3.85128 18.8566 4.09395C19.3346 4.27005 19.7669 4.55131 20.1216 4.91695C20.4873 5.27163 20.7685 5.70395 20.9446 6.18195C21.1873 6.83579 21.3155 7.52656 21.3236 8.22395C21.3766 9.38395 21.3876 9.73195 21.3876 12.6689C21.3876 15.6059 21.3766 15.9539 21.3236 17.1139C21.3155 17.8113 21.1873 18.5021 20.9446 19.1559C20.7616 19.6304 20.4812 20.0613 20.1216 20.4209C19.762 20.7805 19.3311 21.0609 18.8566 21.2439C18.2028 21.4866 17.512 21.6148 16.8146 21.6229C15.6546 21.6759 15.3066 21.6869 12.3696 21.6869C9.43263 21.6869 9.08463 21.6759 7.92463 21.6229C7.22725 21.6148 6.53648 21.4866 5.88263 21.2439C5.40463 21.0678 4.97232 20.7866 4.61763 20.4209C4.252 20.0663 3.97073 19.6339 3.79463 19.1559C3.55196 18.5021 3.42375 17.8113 3.41563 17.1139C3.36263 15.9539 3.35163 15.6059 3.35163 12.6689C3.35163 9.73195 3.36263 9.38395 3.41563 8.22395C3.42375 7.52656 3.55196 6.83579 3.79463 6.18195C3.97073 5.70395 4.252 5.27163 4.61763 4.91695C4.97232 4.55131 5.40463 4.27005 5.88263 4.09395C6.53648 3.85128 7.22725 3.72307 7.92463 3.71495C9.08463 3.66195 9.43263 3.65095 12.3696 3.65095ZM12.3696 1.66895C9.38263 1.66895 9.00763 1.68195 7.83463 1.73495C6.92221 1.7538 6.01953 1.92656 5.16463 2.24595C4.43318 2.52912 3.76903 2.96213 3.21484 3.51718C2.66065 4.07224 2.22866 4.73705 1.94663 5.46895C1.62725 6.32384 1.45449 7.22653 1.43563 8.13895C1.38263 9.30695 1.36963 9.68195 1.36963 12.6689C1.36963 15.6559 1.38263 16.0309 1.43563 17.2039C1.45449 18.1164 1.62725 19.019 1.94663 19.8739C2.2298 20.6054 2.66282 21.2695 3.21787 21.8237C3.77292 22.3779 4.43774 22.8099 5.16963 23.0919C6.02453 23.4113 6.92721 23.5841 7.83963 23.6029C9.00763 23.6559 9.38263 23.6689 12.3696 23.6689C15.3566 23.6689 15.7316 23.6559 16.9046 23.6029C17.817 23.5841 18.7197 23.4113 19.5746 23.0919C20.3061 22.8088 20.9702 22.3758 21.5244 21.8207C22.0786 21.2657 22.5106 20.6008 22.7926 19.8689C23.112 19.014 23.2848 18.1114 23.3036 17.1989C23.3566 16.0309 23.3696 15.6559 23.3696 12.6689C23.3696 9.68195 23.3566 9.30695 23.3036 8.13395C23.2848 7.22153 23.112 6.31884 22.7926 5.46395C22.5095 4.73249 22.0764 4.06835 21.5214 3.51416C20.9663 2.95997 20.3015 2.52798 19.5696 2.24595C18.7147 1.92656 17.812 1.7538 16.8996 1.73495C15.7316 1.68195 15.3566 1.66895 12.3696 1.66895Z" fill="white"/>
<path d="M12.3697 7.02051C11.2524 7.02051 10.1603 7.35182 9.23129 7.97254C8.30232 8.59326 7.57827 9.47551 7.15071 10.5077C6.72315 11.5399 6.61128 12.6758 6.82925 13.7716C7.04722 14.8674 7.58523 15.8739 8.37526 16.664C9.16529 17.454 10.1718 17.992 11.2676 18.21C12.3634 18.4279 13.4993 18.3161 14.5315 17.8885C15.5637 17.4609 16.446 16.7369 17.0667 15.8079C17.6874 14.879 18.0187 13.7868 18.0187 12.6695C18.0187 11.1713 17.4235 9.73446 16.3642 8.67506C15.3048 7.61567 13.8679 7.02051 12.3697 7.02051V7.02051ZM12.3697 16.3365C11.6444 16.3365 10.9355 16.1214 10.3324 15.7185C9.72939 15.3156 9.25939 14.7429 8.98184 14.0728C8.70429 13.4028 8.63167 12.6654 8.77317 11.9541C8.91466 11.2428 9.26391 10.5894 9.77675 10.0765C10.2896 9.56371 10.943 9.21446 11.6543 9.07297C12.3656 8.93148 13.1029 9.0041 13.773 9.28164C14.4431 9.55919 15.0158 10.0292 15.4187 10.6322C15.8216 11.2353 16.0367 11.9442 16.0367 12.6695C16.0367 13.6421 15.6504 14.5748 14.9627 15.2625C14.275 15.9502 13.3423 16.3365 12.3697 16.3365V16.3365Z" fill="white"/>
<path d="M18.2419 8.11754C18.9709 8.11754 19.5619 7.52655 19.5619 6.79754C19.5619 6.06852 18.9709 5.47754 18.2419 5.47754C17.5129 5.47754 16.9219 6.06852 16.9219 6.79754C16.9219 7.52655 17.5129 8.11754 18.2419 8.11754Z" fill="white"/>
</svg>
