<svg width="20" height="20" viewBox="0 0 20 20" fill="none" xmlns="http://www.w3.org/2000/svg">
<path fill-rule="evenodd" clip-rule="evenodd" d="M2 9C2 5.13401 5.13401 2 9 2C12.866 2 16 5.13401 16 9C16 10.8844 15.2554 12.5949 14.0443 13.8533C14.0085 13.8806 13.9741 13.9106 13.9413 13.9433C13.9087 13.9759 13.8788 14.0103 13.8516 14.046C12.5934 15.2561 10.8836 16 9 16C5.13401 16 2 12.866 2 9ZM14.6166 16.0328C13.0771 17.2639 11.1245 18 9 18C4.02944 18 0 13.9706 0 9C0 4.02944 4.02944 0 9 0C13.9706 0 18 4.02944 18 9C18 11.1255 17.2632 13.0789 16.031 14.6188L19.7055 18.2933C20.0961 18.6838 20.0961 19.317 19.7055 19.7075C19.315 20.098 18.6819 20.098 18.2913 19.7075L14.6166 16.0328Z" fill="black"/>
</svg>
