<svg width="25" height="25" viewBox="0 0 25 25" fill="none" xmlns="http://www.w3.org/2000/svg">
<path d="M7.38477 20.6684H3.38477V8.66836H7.38477V20.6684ZM5.38557 7.06836C4.27917 7.06836 3.38477 6.17156 3.38477 5.06756C3.38477 3.96356 4.28077 3.06836 5.38557 3.06836C6.48797 3.06836 7.38477 3.96516 7.38477 5.06756C7.38477 6.17156 6.48797 7.06836 5.38557 7.06836ZM21.7848 20.6684H17.9392V14.8284C17.9392 13.4356 17.9128 11.6444 15.94 11.6444C13.9376 11.6444 13.6296 13.1612 13.6296 14.7276V20.6684H9.78477V8.65956H13.476V10.3004H13.528C14.0416 9.35636 15.2968 8.36116 17.1688 8.36116C21.0648 8.36116 21.7848 10.8484 21.7848 14.082V20.6684Z" fill="white"/>
</svg>
