<svg width="49" height="48" viewBox="0 0 49 48" fill="none" xmlns="http://www.w3.org/2000/svg">
<path fill-rule="evenodd" clip-rule="evenodd" d="M40.0841 10.8297C41.8042 11.2918 43.165 12.6525 43.6271 14.3727C44.4743 17.5049 44.5 24.0004 44.5 24.0004C44.5 24.0004 44.5 30.5216 43.6528 33.6281C43.1906 35.3483 41.8299 36.709 40.1098 37.1711C37.0032 38.0184 24.5 38.0184 24.5 38.0184C24.5 38.0184 11.9968 38.0184 8.89025 37.1711C7.17009 36.709 5.80937 35.3483 5.34724 33.6281C4.5 30.4959 4.5 24.0004 4.5 24.0004C4.5 24.0004 4.5 17.5049 5.32157 14.3983C5.7837 12.6782 7.14442 11.3175 8.86457 10.8553C11.9711 10.0081 24.4743 9.98242 24.4743 9.98242C24.4743 9.98242 36.9775 9.98242 40.0841 10.8297ZM30.8671 24.0004L20.4949 30.0081V17.9927L30.8671 24.0004Z" fill="black"/>
</svg>
