<svg width="48" height="48" viewBox="0 0 48 48" fill="none" xmlns="http://www.w3.org/2000/svg">
<path fill-rule="evenodd" clip-rule="evenodd" d="M39.5841 10.8297C41.3042 11.2918 42.665 12.6525 43.1271 14.3727C43.9743 17.5049 44 24.0004 44 24.0004C44 24.0004 44 30.5216 43.1528 33.6281C42.6906 35.3483 41.3299 36.709 39.6098 37.1711C36.5032 38.0184 24 38.0184 24 38.0184C24 38.0184 11.4968 38.0184 8.39025 37.1711C6.67009 36.709 5.30937 35.3483 4.84724 33.6281C4 30.4959 4 24.0004 4 24.0004C4 24.0004 4 17.5049 4.82157 14.3983C5.2837 12.6782 6.64442 11.3175 8.36457 10.8553C11.4711 10.0081 23.9743 9.98242 23.9743 9.98242C23.9743 9.98242 36.4775 9.98242 39.5841 10.8297ZM30.3671 24.0004L19.9949 30.0081V17.9927L30.3671 24.0004Z" fill="white"/>
</svg>
