<svg width="25" height="25" viewBox="0 0 25 25" fill="none" xmlns="http://www.w3.org/2000/svg">
<path d="M21.6665 4.82353V20.1765C21.6665 20.5275 21.5271 20.8641 21.2789 21.1123C21.0306 21.3606 20.694 21.5 20.343 21.5H4.99003C4.63901 21.5 4.30237 21.3606 4.05416 21.1123C3.80595 20.8641 3.6665 20.5275 3.6665 20.1765V4.82353C3.6665 4.47251 3.80595 4.13586 4.05416 3.88765C4.30237 3.63944 4.63901 3.5 4.99003 3.5H20.343C20.694 3.5 21.0306 3.63944 21.2789 3.88765C21.5271 4.13586 21.6665 4.47251 21.6665 4.82353V4.82353ZM8.96062 10.3824H6.31356V18.8529H8.96062V10.3824ZM9.19886 7.47059C9.20025 7.27036 9.16219 7.07182 9.08686 6.8863C9.01152 6.70078 8.90038 6.53191 8.75978 6.38935C8.61918 6.24678 8.45187 6.1333 8.26742 6.0554C8.08296 5.97749 7.88497 5.93668 7.68474 5.93529H7.63709C7.22991 5.93529 6.8394 6.09705 6.55148 6.38497C6.26355 6.6729 6.1018 7.0634 6.1018 7.47059C6.1018 7.87777 6.26355 8.26828 6.55148 8.55621C6.8394 8.84413 7.22991 9.00588 7.63709 9.00588V9.00588C7.83733 9.01081 8.03659 8.97623 8.22346 8.90413C8.41033 8.83202 8.58117 8.7238 8.72621 8.58565C8.87124 8.44749 8.98763 8.28212 9.06873 8.09897C9.14983 7.91582 9.19405 7.71848 9.19886 7.51824V7.47059ZM19.0194 13.7071C19.0194 11.1606 17.3994 10.1706 15.79 10.1706C15.2631 10.1442 14.7384 10.2564 14.2684 10.4961C13.7983 10.7358 13.3993 11.0945 13.1112 11.5365H13.0371V10.3824H10.5489V18.8529H13.1959V14.3476C13.1577 13.8862 13.303 13.4283 13.6004 13.0735C13.8978 12.7186 14.3232 12.4954 14.7842 12.4524H14.8847C15.7265 12.4524 16.3512 12.9818 16.3512 14.3159V18.8529H18.9983L19.0194 13.7071Z" fill="white"/>
</svg>
