<svg width="49" height="48" viewBox="0 0 49 48" fill="none" xmlns="http://www.w3.org/2000/svg">
<path d="M42.5 8.64706V39.3529C42.5 40.055 42.2211 40.7283 41.7247 41.2247C41.2283 41.7211 40.555 42 39.8529 42H9.14706C8.44502 42 7.77173 41.7211 7.27531 41.2247C6.77889 40.7283 6.5 40.055 6.5 39.3529V8.64706C6.5 7.94502 6.77889 7.27173 7.27531 6.77531C7.77173 6.27889 8.44502 6 9.14706 6H39.8529C40.555 6 41.2283 6.27889 41.7247 6.77531C42.2211 7.27173 42.5 7.94502 42.5 8.64706ZM17.0882 19.7647H11.7941V36.7059H17.0882V19.7647ZM17.5647 13.9412C17.5675 13.5407 17.4914 13.1436 17.3407 12.7726C17.19 12.4016 16.9677 12.0638 16.6866 11.7787C16.4054 11.4936 16.0707 11.2666 15.7018 11.1108C15.3329 10.955 14.9369 10.8734 14.5365 10.8706H14.4412C13.6268 10.8706 12.8458 11.1941 12.2699 11.7699C11.6941 12.3458 11.3706 13.1268 11.3706 13.9412C11.3706 14.7555 11.6941 15.5366 12.2699 16.1124C12.8458 16.6883 13.6268 17.0118 14.4412 17.0118C14.8417 17.0216 15.2402 16.9525 15.6139 16.8083C15.9877 16.664 16.3293 16.4476 16.6194 16.1713C16.9095 15.895 17.1423 15.5642 17.3045 15.1979C17.4667 14.8316 17.5551 14.437 17.5647 14.0365V13.9412ZM37.2059 26.4141C37.2059 21.3212 33.9659 19.3412 30.7471 19.3412C29.6932 19.2884 28.6438 19.5129 27.7037 19.9922C26.7637 20.4715 25.9657 21.189 25.3894 22.0729H25.2412V19.7647H20.2647V36.7059H25.5588V27.6953C25.4823 26.7725 25.773 25.8567 26.3678 25.1469C26.9625 24.4372 27.8133 23.9908 28.7353 23.9047H28.9365C30.62 23.9047 31.8694 24.9635 31.8694 27.6318V36.7059H37.1635L37.2059 26.4141Z" fill="black"/>
</svg>
