<svg width="24" height="25" viewBox="0 0 24 25" fill="none" xmlns="http://www.w3.org/2000/svg">
<path d="M12 4.66797C8.136 4.66797 3.12079 5.43069 3.12079 5.43069L3.10817 5.44205C1.3483 5.66378 0 6.85514 0 8.30401V12.6673V12.6687V17.0305V17.0319C0.00171734 17.7239 0.316495 18.3927 0.887814 18.9183C1.45913 19.4439 2.24957 19.7918 3.11719 19.8996L3.12079 19.9038C3.12079 19.9038 8.136 20.668 12 20.668C15.864 20.668 20.8792 19.9038 20.8792 19.9038L20.881 19.9024C21.7496 19.7949 22.5409 19.4467 23.1127 18.9205C23.6844 18.3943 23.9991 17.7246 24 17.0319V17.0305V12.6687V12.6673V8.30401C23.9987 7.6118 23.6841 6.94264 23.1128 6.41677C22.5414 5.89089 21.7507 5.54277 20.8828 5.43495L20.8792 5.43069C20.8792 5.43069 15.864 4.66797 12 4.66797ZM9.23077 9.32097L15.5 12.6673L9.23077 16.0136V9.32097Z" fill="white"/>
</svg>
