<svg width="24" height="25" viewBox="0 0 24 25" fill="none" xmlns="http://www.w3.org/2000/svg">
<path fill-rule="evenodd" clip-rule="evenodd" d="M19.792 5.91483C20.6521 6.14589 21.3325 6.82626 21.5635 7.68633C21.9872 9.25244 22 12.5002 22 12.5002C22 12.5002 22 15.7608 21.5764 17.3141C21.3453 18.1741 20.665 18.8545 19.8049 19.0856C18.2516 19.5092 12 19.5092 12 19.5092C12 19.5092 5.74839 19.5092 4.19512 19.0856C3.33504 18.8545 2.65469 18.1741 2.42362 17.3141C2 15.748 2 12.5002 2 12.5002C2 12.5002 2 9.25244 2.41078 7.69917C2.64185 6.83909 3.32221 6.15873 4.18228 5.92767C5.73556 5.50404 11.9872 5.49121 11.9872 5.49121C11.9872 5.49121 18.2388 5.49121 19.792 5.91483ZM15.1836 12.5002L9.99743 15.504V9.49635L15.1836 12.5002Z" fill="white"/>
</svg>
