<svg width="16" height="17" viewBox="0 0 16 17" fill="none" xmlns="http://www.w3.org/2000/svg">
<path d="M10.9707 9.06746C11.7589 8.45074 12.3342 7.60504 12.6166 6.64801C12.899 5.69097 12.8744 4.6702 12.5463 3.72771C12.2182 2.78521 11.6028 1.96786 10.7859 1.38937C9.96892 0.810873 8.99097 0.5 7.98808 0.5C6.98519 0.5 6.00723 0.810873 5.19027 1.38937C4.37331 1.96786 3.75797 2.78521 3.42985 3.72771C3.10173 4.6702 3.07716 5.69097 3.35954 6.64801C3.64193 7.60504 4.21723 8.45074 5.00542 9.06746C3.65485 9.60558 2.47642 10.4981 1.59578 11.6499C0.715138 12.8017 0.165288 14.1696 0.0048493 15.6077C-0.00676409 15.7127 0.00253114 15.8189 0.0322041 15.9204C0.061877 16.0218 0.111346 16.1164 0.177788 16.1988C0.311973 16.3652 0.507144 16.4718 0.720365 16.4952C0.933586 16.5185 1.14739 16.4566 1.31475 16.3232C1.4821 16.1897 1.5893 15.9956 1.61275 15.7836C1.78929 14.2206 2.53865 12.7772 3.71767 11.729C4.89669 10.6807 6.4227 10.1013 8.00416 10.1013C9.58561 10.1013 11.1116 10.6807 12.2906 11.729C13.4697 12.7772 14.219 14.2206 14.3956 15.7836C14.4174 15.98 14.5117 16.1615 14.6601 16.2929C14.8086 16.4243 15.0008 16.4964 15.1995 16.4952H15.2879C15.4987 16.4711 15.6913 16.3651 15.8238 16.2003C15.9563 16.0356 16.018 15.8254 15.9954 15.6157C15.8342 14.1735 15.2814 12.8021 14.3962 11.6485C13.5111 10.495 12.3269 9.60273 10.9707 9.06746ZM7.98808 8.49978C7.35205 8.49978 6.73031 8.31222 6.20147 7.9608C5.67264 7.60938 5.26046 7.1099 5.01706 6.52551C4.77367 5.94112 4.70998 5.29808 4.83406 4.6777C4.95815 4.05732 5.26442 3.48746 5.71416 3.04019C6.1639 2.59292 6.7369 2.28833 7.3607 2.16492C7.98451 2.04152 8.6311 2.10486 9.21871 2.34692C9.80632 2.58898 10.3086 2.99889 10.6619 3.52483C11.0153 4.05076 11.2039 4.66909 11.2039 5.30163C11.2039 6.14983 10.8651 6.9633 10.262 7.56307C9.65891 8.16284 8.84096 8.49978 7.98808 8.49978Z" fill="white"/>
</svg>
