<?xml version="1.0" encoding="utf-8"?>
<!-- Generator: Adobe Illustrator 28.2.0, SVG Export Plug-In . SVG Version: 6.00 Build 0)  -->
<svg version="1.1" id="Layer_1" xmlns="http://www.w3.org/2000/svg" xmlns:xlink="http://www.w3.org/1999/xlink" x="0px" y="0px"
	 viewBox="0 0 237.2 40" style="enable-background:new 0 0 237.2 40;" xml:space="preserve">
<style type="text/css">
	.st0{fill:#FFFFFF;}
	.st1{fill:#38D430;}
</style>
<path class="st0" d="M229,28.9c0,0.2,0.1,0.3,0.3,0.3c0.2,0,0.5-0.1,0.5-0.5v-0.2c-0.1,0-0.2,0.1-0.4,0.1
	C229.1,28.6,229,28.7,229,28.9"/>
<path class="st0" d="M234.4,29.7v-1.5c0-0.3-0.1-0.5-0.3-0.5s-0.4,0.2-0.4,0.5v1.4h-1v-1.5c0-0.3-0.1-0.5-0.3-0.5s-0.4,0.2-0.4,0.5
	v1.4h-1V27h0.9v0.4l0,0c0.2-0.3,0.5-0.5,0.8-0.5c0.4,0,0.6,0.2,0.7,0.5l0,0c0.2-0.4,0.5-0.5,0.9-0.5c0.6,0,0.9,0.5,0.9,1.1v1.7
	H234.4z M230.8,29.7h-1c0,0,0-0.1-0.1-0.3l0,0c-0.2,0.2-0.5,0.4-0.8,0.4c-0.5,0-0.9-0.3-0.9-0.8c0-0.6,0.5-0.8,1-0.8
	c0.6,0,0.7-0.1,0.7-0.3c0-0.1,0-0.3-0.3-0.3s-0.3,0.1-0.4,0.3h-0.9c0-0.5,0.4-1,1.3-1c0.4,0,0.7,0,0.9,0.2c0.3,0.2,0.4,0.5,0.4,0.8
	v1.3C230.7,29.4,230.7,29.6,230.8,29.7L230.8,29.7z M227.9,29.7h-1v-1.5c0-0.3-0.1-0.5-0.4-0.5c-0.2,0-0.4,0.2-0.4,0.5v1.4h-1V27
	h0.9v0.4l0,0c0.2-0.3,0.5-0.5,0.9-0.5c0.6,0,0.9,0.4,0.9,1L227.9,29.7L227.9,29.7z M224.9,27.6h-0.5v1.1c0,0.3,0.2,0.3,0.5,0.2v0.7
	c-0.1,0-0.3,0-0.5,0c-0.6,0-1-0.2-1-0.8v-1.3h-0.3v-0.6h0.3V26h1v0.9h0.5V27.6z M221.7,29.1c0.2,0,0.3,0,0.4-0.2h1
	c0,0.2-0.2,0.5-0.5,0.6c-0.2,0.1-0.5,0.2-0.8,0.2c-0.9,0-1.5-0.6-1.5-1.4c0-0.8,0.6-1.4,1.4-1.4c0.4,0,0.7,0.1,1,0.4
	c0.3,0.3,0.5,0.8,0.5,1.3h-1.9C221.3,28.9,221.5,29.1,221.7,29.1 M220.1,26.7h-1V26h1V26.7z M220.1,29.7h-1V27h1V29.7z M217.8,29.7
	h-1.3l-1.2-3.8h1.1l0.5,1.8c0.1,0.3,0.2,0.7,0.2,0.7l0,0c0,0,0.1-0.4,0.2-0.7l0.5-1.8h1.1L217.8,29.7z M225.3,16.2
	c-6.6,0-11.9,5.3-11.9,11.9S218.7,40,225.3,40s11.9-5.3,11.9-11.9S231.8,16.2,225.3,16.2"/>
<path class="st0" d="M221.7,27.5c-0.3,0-0.4,0.2-0.5,0.5h0.9C222.1,27.7,221.9,27.5,221.7,27.5"/>
<path class="st0" d="M80.2,34.8h3.2c0.1,0.4,0.6,0.8,1.3,0.8c1.1,0,1.4-0.7,1.4-1.7v-0.7h-0.1c-0.5,0.6-1.3,1.1-2.3,1.1
	c-2,0-3.8-1.5-3.8-4.5c0-2.7,1.5-4.9,3.7-4.9c1.3,0,2,0.5,2.6,1.3h0v-1.1h3.2v8.3c0,1.5-0.5,2.7-1.3,3.4c-0.8,0.7-2,1.1-3.4,1.1
	C82.3,38,80.5,36.9,80.2,34.8 M86.4,29.7c0-1.2-0.6-2.1-1.5-2.1c-0.9,0-1.5,0.8-1.5,2.1c0,1.3,0.6,2.2,1.5,2.2
	C85.8,31.8,86.4,30.9,86.4,29.7"/>
<path class="st0" d="M76.4,26.8L76.4,26.8c0.7-1.3,1.7-1.9,2.8-1.9c0.3,0,0.5,0,0.6,0.1V28h-0.1c-2-0.4-3.1,0.6-3.1,2.7v4h-3.3v-9.5
	h3.2V26.8z"/>
<path class="st0" d="M0,21.4h6.6c1.3,0,2.2,0.3,2.9,0.8c0.7,0.6,1.2,1.5,1.2,2.6c0,1.3-0.5,2.1-1.6,2.6v0c1.4,0.5,2.2,1.7,2.2,3.2
	c0,1.4-0.6,2.5-1.4,3.2C9,34.5,8,34.8,6.7,34.8H0V21.4z M6.3,31.8c0.8,0,1.4-0.5,1.4-1.4C7.6,29.5,7,29,6.3,29H3.7v2.7L6.3,31.8
	L6.3,31.8z M5.9,26.6c0.7,0,1.2-0.4,1.2-1.2c0-0.7-0.6-1.2-1.3-1.2H3.6v2.3H5.9z"/>
<rect x="11.8" y="21.4" class="st0" width="3.4" height="13.4"/>
<path class="st0" d="M15.9,30c0-3,1.9-5.1,5-5.1s5,2,5,5.1c0,3.1-1.9,5.1-5,5.1C17.9,35.1,15.9,33,15.9,30 M22.4,30
	c0-1.7-0.6-2.7-1.6-2.7s-1.5,1.1-1.5,2.7c0,1.7,0.5,2.7,1.5,2.7S22.4,31.7,22.4,30"/>
<path class="st0" d="M26.2,30c0-3,1.9-5.1,5-5.1s5,2,5,5.1c0,3.1-1.9,5.1-5,5.1C28.2,35.1,26.2,33,26.2,30 M32.8,30
	c0-1.7-0.6-2.7-1.6-2.7c-1,0-1.5,1.1-1.5,2.7c0,1.7,0.5,2.7,1.5,2.7C32.2,32.8,32.8,31.7,32.8,30"/>
<path class="st0" d="M36.8,25.2H40v1.4h0c0.6-1.1,1.5-1.7,2.9-1.7c1.2,0,2.1,0.6,2.6,1.7h0c0.8-1.3,1.8-1.7,3-1.7
	c2.2,0,3.2,1.6,3.2,3.8v6h-3.3v-5.4c0-1-0.3-1.6-1.2-1.6S46,28.6,46,29.6v5.2h-3.3v-5.4c0-1-0.3-1.6-1.2-1.6s-1.3,0.8-1.3,1.8v5.2
	h-3.4V25.2z"/>
<path class="st0" d="M55.9,33.6L55.9,33.6l0,1.3h-3.2V21.4h3.3v4.8h0c0.6-0.8,1.5-1.3,2.7-1.3c2.4,0,3.8,2.2,3.8,5.1
	c0,3.2-1.5,5.1-4,5.1C57.5,35.1,56.5,34.6,55.9,33.6 M59.1,29.9c0-1.5-0.6-2.5-1.6-2.5c-1,0-1.7,1-1.7,2.5c0,1.5,0.6,2.5,1.7,2.5
	C58.6,32.5,59.1,31.5,59.1,29.9"/>
<path class="st0" d="M63,30c0-3,2-5.1,4.8-5.1c1.4,0,2.5,0.5,3.3,1.3c1.1,1.1,1.6,2.7,1.6,4.7h-6.4c0.1,1.2,0.7,1.8,1.7,1.8
	c0.6,0,1.1-0.3,1.3-0.9h3.2c-0.6,2.2-2.3,3.3-4.6,3.3C65,35,63,33,63,30 M66.3,29h3.1c0-1.2-0.7-1.8-1.5-1.8
	C66.9,27.2,66.4,27.9,66.3,29"/>
<polygon class="st0" points="200.4,21.4 200.4,34.8 203.7,34.8 203.7,32.1 204.4,31.3 206.2,34.8 210,34.8 206.6,28.7 209.6,25.2 
	205.9,25.2 203.7,28.1 203.7,21.4 "/>
<path class="st0" d="M92.7,21.4h6.6c1.3,0,2.2,0.3,2.9,0.8c0.7,0.6,1.2,1.5,1.2,2.6c0,1.3-0.5,2.1-1.6,2.6v0
	c1.4,0.5,2.2,1.7,2.2,3.2c0,1.4-0.6,2.5-1.4,3.2c-0.7,0.6-1.8,0.8-3.1,0.8h-6.7V21.4z M98.9,31.8c0.8,0,1.4-0.5,1.4-1.4
	c0-0.9-0.6-1.4-1.4-1.4h-2.6v2.7L98.9,31.8L98.9,31.8z M98.6,26.6c0.7,0,1.2-0.4,1.2-1.2c0-0.7-0.5-1.2-1.3-1.2h-2.3v2.3H98.6z"/>
<path class="st0" d="M110.5,34.8v-1.3h0c-0.7,1-1.6,1.5-2.8,1.5c-2.2,0-3.2-1.5-3.2-3.7v-6.1h3.3v5.4c0,1.1,0.4,1.5,1.2,1.5
	c0.9,0,1.4-0.6,1.4-1.7v-5.3h3.3v9.5H110.5z"/>
<path class="st0" d="M114.3,31.7h3.1c0,0.8,0.5,1.3,1.4,1.3c0.6,0,1.2-0.2,1.2-0.8c0-0.8-1.1-0.8-2.2-1c-1.5-0.2-3.3-0.7-3.3-3.1
	c0-1.9,1.9-3.1,4.1-3.1c2.7,0,4.2,1.1,4.3,3h-3.2c-0.1-0.7-0.6-0.9-1.2-0.9c-0.5,0-1,0.2-1,0.7s0.8,0.7,1.9,0.8
	c1.7,0.2,3.8,0.6,3.8,3.3c0,2.3-2,3.3-4.4,3.3C116.1,35.1,114.3,33.9,114.3,31.7"/>
<path class="st0" d="M123.8,34.8h3.3v-9.5h-3.3V34.8z M123.8,24.5h3.3v-2.7h-3.3V24.5z"/>
<path class="st0" d="M131.3,26.5L131.3,26.5c0.8-1.1,1.7-1.6,3-1.6c2.1,0,3.2,1.5,3.2,3.7v6.2h-3.3v-5.4c0-1.1-0.4-1.7-1.3-1.7
	c-0.8,0-1.4,0.7-1.4,1.8v5.2h-3.3v-9.5h3.2L131.3,26.5L131.3,26.5z"/>
<path class="st0" d="M138,30c0-3,2-5.1,4.8-5.1c1.4,0,2.5,0.5,3.3,1.3c1.1,1.1,1.6,2.7,1.6,4.7h-6.4c0.1,1.2,0.7,1.8,1.7,1.8
	c0.6,0,1.1-0.3,1.3-0.9h3.2c-0.6,2.2-2.3,3.3-4.6,3.3C140,35,138,33,138,30 M141.4,29h3.1c0-1.2-0.7-1.8-1.5-1.8
	C142,27.2,141.5,27.9,141.4,29"/>
<path class="st0" d="M148.1,31.7h3.1c0,0.8,0.5,1.3,1.4,1.3c0.6,0,1.2-0.2,1.2-0.8c0-0.8-1.1-0.8-2.2-1c-1.5-0.2-3.3-0.7-3.3-3.1
	c0-1.9,1.9-3.1,4.1-3.1c2.7,0,4.2,1.1,4.3,3h-3.2c-0.1-0.7-0.6-0.9-1.2-0.9c-0.5,0-1,0.2-1,0.7s0.8,0.7,1.9,0.8
	c1.7,0.2,3.8,0.6,3.8,3.3c0,2.3-2,3.3-4.4,3.3C149.9,35.1,148.1,33.9,148.1,31.7"/>
<path class="st0" d="M157.4,31.7h3.1c0,0.8,0.5,1.3,1.4,1.3c0.6,0,1.2-0.2,1.2-0.8c0-0.8-1.1-0.8-2.2-1c-1.5-0.2-3.3-0.7-3.3-3.1
	c0-1.9,1.9-3.1,4.1-3.1c2.7,0,4.2,1.1,4.3,3h-3.2c-0.1-0.7-0.6-0.9-1.2-0.9c-0.5,0-1,0.2-1,0.7s0.8,0.7,1.9,0.8
	c1.7,0.2,3.8,0.6,3.8,3.3c0,2.3-2,3.3-4.4,3.3C159.2,35.1,157.4,33.9,157.4,31.7"/>
<polygon class="st0" points="177.1,25.2 175.9,30.5 175.9,30.5 174.6,25.2 171.7,25.2 170.5,30.5 170.4,30.5 169.1,25.2 165.7,25.2 
	168.6,34.8 171.8,34.8 173.1,29.2 173.1,29.2 174.4,34.8 177.7,34.8 180.5,25.2 "/>
<path class="st0" d="M180,30c0-3,2-5.1,4.8-5.1c1.4,0,2.5,0.5,3.3,1.3c1.1,1.1,1.6,2.7,1.6,4.7h-6.4c0.1,1.2,0.7,1.8,1.7,1.8
	c0.6,0,1.1-0.3,1.3-0.9h3.2c-0.6,2.2-2.3,3.3-4.6,3.3C182,35,180,33,180,30 M183.3,29h3.1c0-1.2-0.7-1.8-1.5-1.8
	C184,27.2,183.4,27.9,183.3,29"/>
<path class="st0" d="M190.1,30c0-3,2-5.1,4.8-5.1c1.4,0,2.5,0.5,3.3,1.3c1.1,1.1,1.6,2.7,1.6,4.7h-6.4c0.1,1.2,0.7,1.8,1.7,1.8
	c0.6,0,1.1-0.3,1.3-0.9h3.2c-0.6,2.2-2.3,3.3-4.6,3.3C192.1,35,190.1,33,190.1,30 M193.5,29h3.1c0-1.2-0.7-1.8-1.5-1.8
	C194.1,27.2,193.6,27.9,193.5,29"/>
<path class="st1" d="M3.9,9h2.1c1,0,1.6-0.6,1.6-1.6C7.6,6.6,7,6,6.1,6H3.9V9z M0,2.7h6.2c1.7,0,3,0.5,3.8,1.3
	c1,0.8,1.5,2.1,1.5,3.6c0,2.6-1.9,4.5-4.6,4.5H3.9v4.1H0V2.7z"/>
<path class="st1" d="M15.4,7.7L15.4,7.7c0.7-0.8,1.6-1.4,3-1.4c2.2,0,3.4,1.5,3.4,3.7v6.2h-3.6v-5.3c0-1-0.4-1.7-1.3-1.7
	c-0.9,0-1.4,0.8-1.4,1.8v5.1h-3.6V2.7h3.6C15.4,2.7,15.4,7.7,15.4,7.7z"/>
<path class="st1" d="M28.1,5.5h-2.4l1.2-2.6h3.4L28.1,5.5z M28.1,12.7v-0.8c-0.3,0.2-0.8,0.3-1.4,0.5c-1,0.2-1.3,0.5-1.3,1.1
	c0,0.6,0.5,0.9,1.1,0.9C27.3,14.3,28.1,13.9,28.1,12.7 M28.1,15.1L28.1,15.1c-0.7,0.9-1.7,1.3-2.9,1.3c-1.9,0-3.2-1-3.2-2.9
	c0-2.1,1.6-2.7,3.5-3c2-0.2,2.6-0.5,2.6-1.1c0-0.5-0.2-0.9-1-0.9c-0.8,0-1.2,0.5-1.3,1.2h-3.4C22.5,7.8,24,6.3,27,6.3
	c1.5,0,2.4,0.2,3.2,0.6c1,0.6,1.5,1.6,1.5,2.9v4.8c0,0.8,0,1.3,0.4,1.4v0.1h-3.5C28.3,15.9,28.2,15.7,28.1,15.1"/>
<path class="st1" d="M31.5,6.6h1.3V3.5h3.5v3.1h1.8v2.1h-1.8v3.9c0,1,0.7,1,1.8,0.9v2.6c-0.6,0.1-1.1,0.2-1.8,0.2
	c-2.3,0-3.5-0.6-3.5-3V8.8h-1.3L31.5,6.6L31.5,6.6z"/>
<path class="st1" d="M39.8,6.6H41V3.5h3.5v3.1h1.8v2.1h-1.8v3.9c0,1,0.7,1,1.8,0.9v2.6c-0.6,0.1-1.1,0.2-1.8,0.2
	c-2.3,0-3.5-0.6-3.5-3V8.8h-1.3C39.8,8.8,39.8,6.6,39.8,6.6z"/>
<path class="st1" d="M50.1,8.1L50.1,8.1c0.8-1.2,1.7-1.7,3-1.7c0.3,0,0.5,0,0.6,0.1v3h-0.1c-2.1-0.4-3.3,0.6-3.3,2.7v3.9h-3.6V6.6
	h3.4L50.1,8.1L50.1,8.1z"/>
<path class="st1" d="M54.4,6.6H58v9.6h-3.6V6.6z M54.4,3.1H58v2.4h-3.6V3.1z"/>
<path class="st1" d="M68.8,1.6c0,0.8-0.5,1.5-1.1,1.9h-1.9c0.7-0.5,0.9-0.9,0.9-1.3c0-0.3-0.2-0.6-0.7-0.6c-0.2,0-0.5,0-0.7,0.1V0.2
	C65.6,0.1,66.1,0,66.6,0C68.1,0,68.8,0.6,68.8,1.6 M61.7,10.4H65c-0.1-1.1-0.7-1.7-1.6-1.7C62.5,8.7,61.9,9.3,61.7,10.4 M67,5.7
	h-2.7l-0.8-1l-0.8,1h-2.7l2-2.6H65L67,5.7z M58.3,11.4c0-2.9,2.1-5.1,5.1-5.1c1.5,0,2.6,0.5,3.5,1.3c1.2,1.1,1.7,2.8,1.7,4.7h-6.9
	c0.2,1.1,0.8,1.8,1.9,1.8c0.6,0,1.1-0.2,1.3-0.7h3.4c-0.2,0.9-0.9,1.7-1.8,2.3c-0.9,0.6-1.9,0.8-3.1,0.8
	C60.3,16.5,58.3,14.3,58.3,11.4"/>
<path class="st1" d="M72.5,7.9L72.5,7.9c0.8-1.1,1.8-1.6,3.1-1.6c2.2,0,3.4,1.5,3.4,3.7v6.2h-3.6v-5.3c0-1-0.4-1.7-1.3-1.7
	c-0.9,0-1.4,0.8-1.4,1.8v5.1h-3.6V6.6h3.4L72.5,7.9L72.5,7.9z"/>
<polygon class="st1" points="85.4,9.1 81.3,2.7 85.8,2.7 87.9,6.3 87.9,6.3 90.1,2.7 94.3,2.7 90.3,9.1 94.7,16.2 90.1,16.2 
	87.7,12 87.7,12 85.3,16.2 80.9,16.2 "/>
<path class="st1" d="M100.2,12.7v-0.8c-0.3,0.2-0.8,0.3-1.4,0.5c-1,0.2-1.3,0.5-1.3,1.1c0,0.6,0.5,0.9,1.1,0.9
	C99.4,14.3,100.2,13.9,100.2,12.7 M100.1,15.1L100.1,15.1c-0.7,0.9-1.7,1.3-2.9,1.3c-1.9,0-3.2-1-3.2-2.9c0-2.1,1.6-2.7,3.5-3
	c2-0.2,2.6-0.5,2.6-1.1c0-0.5-0.2-0.9-1-0.9S97.9,9,97.8,9.7h-3.4c0.1-1.9,1.5-3.5,4.5-3.5c1.5,0,2.4,0.2,3.2,0.6
	c1,0.6,1.5,1.6,1.5,2.9v4.8c0,0.8,0,1.3,0.4,1.4v0.1h-3.5C100.3,15.9,100.2,15.7,100.1,15.1"/>
<path class="st1" d="M107.7,7.9L107.7,7.9c0.8-1.1,1.8-1.6,3.1-1.6c2.2,0,3.4,1.5,3.4,3.7v6.2h-3.6v-5.3c0-1-0.4-1.7-1.3-1.7
	c-0.9,0-1.4,0.8-1.4,1.8v5.1h-3.6V6.6h3.4L107.7,7.9L107.7,7.9z"/>
<path class="st1" d="M118.5,7.7L118.5,7.7c0.7-0.8,1.6-1.4,3-1.4c2.2,0,3.4,1.5,3.4,3.7v6.2h-3.6v-5.3c0-1-0.4-1.7-1.3-1.7
	c-0.9,0-1.4,0.8-1.4,1.8v5.1h-3.6V2.7h3.6L118.5,7.7L118.5,7.7z"/>
</svg>
