<svg width="12" height="8" viewBox="0 0 12 8" fill="none" xmlns="http://www.w3.org/2000/svg">
<path d="M5.40845 6.94994L0.700112 2.23328C0.622005 2.15581 0.56001 2.06364 0.517703 1.96209C0.475395 1.86054 0.453613 1.75162 0.453613 1.64161C0.453613 1.5316 0.475395 1.42268 0.517703 1.32113C0.56001 1.21958 0.622005 1.12741 0.700112 1.04994C0.856247 0.894735 1.06746 0.807617 1.28761 0.807617C1.50777 0.807617 1.71898 0.894735 1.87511 1.04994L6.04178 5.17494L10.1668 1.04994C10.3229 0.894736 10.5341 0.807618 10.7543 0.807618C10.9744 0.807618 11.1856 0.894736 11.3418 1.04994C11.4205 1.12712 11.4832 1.21916 11.5261 1.32072C11.569 1.42229 11.5913 1.53136 11.5918 1.64161C11.5913 1.75187 11.569 1.86094 11.5261 1.9625C11.4832 2.06406 11.4205 2.1561 11.3418 2.23328L6.63345 6.94994C6.55541 7.03453 6.4607 7.10204 6.35528 7.14821C6.24987 7.19438 6.13603 7.21822 6.02094 7.21822C5.90586 7.21822 5.79202 7.19438 5.68661 7.14821C5.58119 7.10204 5.48648 7.03453 5.40845 6.94994Z" fill="white"/>
</svg>
