<?xml version="1.0" encoding="utf-8"?>
<!-- Generator: Adobe Illustrator 28.2.0, SVG Export Plug-In . SVG Version: 6.00 Build 0)  -->
<svg version="1.1" id="Layer_1" xmlns="http://www.w3.org/2000/svg" xmlns:xlink="http://www.w3.org/1999/xlink" x="0px" y="0px"
	 viewBox="0 0 583.9 103.5" style="enable-background:new 0 0 583.9 103.5;" xml:space="preserve">
<style type="text/css">
	.st0{fill:#FFFFFF;}
	.st1{fill:#38D430;}
</style>
<path class="st0" d="M527.5,71.3c0,0.4,0.3,0.6,0.7,0.6c0.5,0,1-0.3,1-1v-0.5c-0.2,0.1-0.5,0.2-0.8,0.3
	C527.7,70.8,527.5,70.9,527.5,71.3"/>
<path class="st0" d="M539.3,73v-3.2c0-0.6-0.2-1-0.7-1c-0.5,0-0.8,0.5-0.8,1.1V73h-2.1v-3.2c0-0.6-0.2-1-0.7-1
	c-0.5,0-0.8,0.5-0.8,1.1V73h-2.1v-5.8h2V68h0c0.4-0.7,1-1,1.8-1c0.8,0,1.3,0.4,1.6,1h0c0.5-0.8,1.1-1,1.9-1c1.4,0,2,1,2,2.3V73
	H539.3z M531.5,73h-2.1c-0.1-0.1-0.1-0.3-0.2-0.6h0c-0.4,0.5-1,0.8-1.7,0.8c-1.1,0-1.9-0.6-1.9-1.7c0-1.3,1-1.7,2.1-1.8
	c1.2-0.1,1.6-0.3,1.6-0.6c0-0.3-0.1-0.6-0.6-0.6c-0.5,0-0.7,0.3-0.8,0.7h-2c0-1.1,0.9-2.1,2.7-2.1c0.9,0,1.5,0.1,1.9,0.4
	c0.6,0.4,0.9,1,0.9,1.7V72C531.3,72.5,531.3,72.8,531.5,73L531.5,73z M525.2,73H523v-3.2c0-0.6-0.2-1-0.8-1c-0.5,0-0.9,0.5-0.9,1.1
	V73h-2.1v-5.8h2V68h0c0.5-0.6,1.1-1,1.9-1c1.3,0,2,0.9,2,2.2V73z M518.7,68.5h-1.1v2.3c0,0.6,0.4,0.6,1.1,0.5v1.6
	c-0.3,0.1-0.7,0.1-1.1,0.1c-1.4,0-2.1-0.4-2.1-1.8v-2.8h-0.7v-1.3h0.7v-1.9h2.1v1.9h1.1V68.5z M511.9,71.7c0.4,0,0.6-0.1,0.8-0.4
	h2.1c-0.1,0.5-0.5,1-1.1,1.4c-0.5,0.3-1.1,0.5-1.8,0.5c-1.9,0-3.2-1.3-3.2-3.1c0-1.7,1.3-3.1,3.1-3.1c0.9,0,1.6,0.3,2.1,0.8
	c0.7,0.6,1,1.7,1,2.8h-4.1C510.9,71.3,511.3,71.7,511.9,71.7 M508.3,66.5h-2.1V65h2.1V66.5z M508.3,73h-2.1v-5.8h2.1V73z M503.5,73
	h-2.7l-2.6-8.1h2.4l1.1,3.8c0.2,0.7,0.4,1.6,0.4,1.6h0c0,0,0.2-0.9,0.4-1.6l1.1-3.8h2.4L503.5,73z M519.5,43.9
	c-14.2,0-25.7,11.5-25.7,25.7c0,14.2,11.5,25.7,25.7,25.7c14.2,0,25.7-11.5,25.7-25.7C545.2,55.4,533.7,43.9,519.5,43.9"/>
<path class="st0" d="M511.8,68.4c-0.6,0-0.9,0.4-1,1h2C512.7,68.8,512.3,68.4,511.8,68.4"/>
<path class="st0" d="M206.5,84.1h7c0.3,0.9,1.2,1.8,2.9,1.8c2.3,0,3.1-1.5,3.1-3.6v-1.5h-0.2c-1.1,1.3-2.7,2.3-4.9,2.3
	c-4.4,0-8.3-3.3-8.3-9.7c0-5.9,3.2-10.5,8-10.5c2.8,0,4.4,1.1,5.6,2.9h0.1v-2.3h6.9v17.9c0,3.3-1.1,5.9-2.9,7.4
	c-1.8,1.6-4.4,2.3-7.3,2.3C211,90.9,207.2,88.7,206.5,84.1 M219.9,73c0-2.6-1.2-4.6-3.3-4.6c-2,0-3.3,1.8-3.3,4.6
	c0,2.8,1.3,4.8,3.3,4.8C218.6,77.7,219.9,75.7,219.9,73"/>
<path class="st0" d="M198.4,66.9h0.1c1.5-2.9,3.5-4,5.9-4c0.6,0,1,0.1,1.2,0.2v6.3h-0.2c-4.3-0.8-6.7,1.3-6.7,5.9V84h-7.2V63.4h6.9
	V66.9z"/>
<path class="st0" d="M33.5,55.1h14.2c2.7,0,4.8,0.7,6.2,1.8c1.6,1.3,2.5,3.3,2.5,5.7c0,2.8-1.1,4.5-3.4,5.6v0.1c3,1,4.7,3.7,4.7,6.9
	c0,3.1-1.2,5.5-3.1,7C52.9,83.5,50.8,84,48,84H33.5V55.1z M47,77.6c1.7,0,3-1,3-3c0-2-1.4-3-3-3h-5.6v5.9H47z M46.3,66.4
	c1.5,0,2.6-0.8,2.6-2.5c0-1.6-1.2-2.5-2.7-2.5h-4.9v5H46.3z"/>
<rect x="59" y="55.1" class="st0" width="7.4" height="28.9"/>
<path class="st0" d="M67.9,73.8c0-6.5,4.2-10.9,10.7-10.9c6.5,0,10.7,4.4,10.7,10.9c0,6.6-4.1,10.9-10.7,10.9
	C72.1,84.7,67.9,80.3,67.9,73.8 M81.9,73.8c0-3.6-1.2-5.9-3.4-5.9s-3.3,2.3-3.3,5.9c0,3.6,1.1,5.9,3.3,5.9S81.9,77.4,81.9,73.8"/>
<path class="st0" d="M90.1,73.8c0-6.5,4.2-10.9,10.7-10.9c6.5,0,10.7,4.4,10.7,10.9c0,6.6-4.1,10.9-10.7,10.9
	C94.4,84.7,90.1,80.3,90.1,73.8 M104.2,73.8c0-3.6-1.2-5.9-3.4-5.9c-2.2,0-3.3,2.3-3.3,5.9c0,3.6,1.1,5.9,3.3,5.9
	C103,79.7,104.2,77.4,104.2,73.8"/>
<path class="st0" d="M113,63.4h6.9v3.1h0.1c1.4-2.4,3.3-3.7,6.2-3.7c2.6,0,4.6,1.3,5.6,3.6h0.1c1.7-2.7,3.9-3.6,6.4-3.6
	c4.8,0,6.9,3.5,6.9,8.3v13h-7.2V72.4c0-2.1-0.7-3.5-2.5-3.5c-1.8,0-2.7,1.7-2.7,3.9V84h-7.2V72.4c0-2.1-0.7-3.5-2.5-3.5
	c-1.8,0-2.7,1.7-2.7,3.9V84H113V63.4z"/>
<path class="st0" d="M154,81.4L154,81.4l-0.1,2.7H147V55.1h7.2v10.4h0.1c1.4-1.8,3.2-2.8,5.9-2.8c5.2,0,8.2,4.7,8.2,10.9
	c0,7-3.3,11-8.6,11C157.6,84.7,155.3,83.7,154,81.4 M161.1,73.6c0-3.3-1.2-5.5-3.4-5.5c-2.2,0-3.6,2.1-3.6,5.5
	c0,3.3,1.4,5.5,3.6,5.5C159.9,79.1,161.1,76.9,161.1,73.6"/>
<path class="st0" d="M169.4,73.7c0-6.4,4.3-10.9,10.4-10.9c3.1,0,5.4,1,7.2,2.7c2.4,2.3,3.5,5.9,3.4,10.2h-13.8
	c0.3,2.6,1.5,3.9,3.7,3.9c1.3,0,2.4-0.6,2.8-2h7c-1.2,4.7-4.9,7.1-10,7.1C173.7,84.6,169.4,80.3,169.4,73.7 M176.6,71.5h6.6
	c-0.1-2.5-1.5-3.8-3.2-3.8C177.9,67.7,176.8,69.2,176.6,71.5"/>
<polygon class="st0" points="465.8,55.1 465.8,84 473,84 473,78.2 474.5,76.5 478.4,84 486.6,84 479.3,71 485.8,63.4 477.8,63.4 
	473,69.7 473,55.1 "/>
<path class="st0" d="M233.4,55.1h14.2c2.7,0,4.8,0.7,6.2,1.8c1.6,1.3,2.5,3.3,2.5,5.7c0,2.8-1.1,4.5-3.4,5.6v0.1
	c3,1,4.7,3.7,4.7,6.9c0,3.1-1.2,5.5-3.1,7c-1.6,1.2-3.8,1.8-6.6,1.8h-14.5V55.1z M246.9,77.6c1.7,0,3-1,3-3c0-2-1.4-3-3-3h-5.6v5.9
	H246.9z M246.2,66.4c1.5,0,2.6-0.8,2.6-2.5c0-1.6-1.1-2.5-2.7-2.5h-4.9v5H246.2z"/>
<path class="st0" d="M272,84v-2.7h-0.1c-1.5,2.1-3.4,3.3-6.1,3.3c-4.7,0-7-3.2-7-8V63.4h7.2v11.7c0,2.3,0.9,3.3,2.6,3.3
	c1.9,0,3-1.3,3-3.6V63.4h7.2V84H272z"/>
<path class="st0" d="M280.1,77.5h6.7c0.1,1.7,1.1,2.7,3,2.7c1.4,0,2.5-0.4,2.5-1.8c0-1.7-2.3-1.8-4.8-2.2c-3.3-0.5-7.1-1.6-7.1-6.7
	c0-4.2,4.1-6.6,8.9-6.6c5.9,0,9.1,2.3,9.3,6.4h-6.8c-0.2-1.5-1.3-2-2.5-2c-1.1,0-2.1,0.4-2.1,1.6c0,1.2,1.8,1.5,4,1.8
	c3.6,0.5,8.1,1.4,8.1,7.1c0,4.9-4.3,7.1-9.6,7.1C283.9,84.7,280.1,82.2,280.1,77.5"/>
<path class="st0" d="M300.5,84h7.2V63.4h-7.2V84z M300.5,61.8h7.2V56h-7.2V61.8z"/>
<path class="st0" d="M316.7,66.2h0.1c1.6-2.3,3.6-3.5,6.3-3.5c4.5,0,6.9,3.2,6.9,7.9V84h-7.2V72.4c0-2.3-0.8-3.6-2.7-3.6
	c-1.8,0-3,1.5-3,3.9V84h-7.2V63.4h6.9V66.2z"/>
<path class="st0" d="M331.2,73.7c0-6.4,4.3-10.9,10.4-10.9c3.1,0,5.4,1,7.2,2.7c2.4,2.3,3.5,5.9,3.4,10.2h-13.8
	c0.3,2.6,1.5,3.9,3.7,3.9c1.3,0,2.4-0.6,2.8-2h7c-1.2,4.7-4.9,7.1-10,7.1C335.5,84.6,331.2,80.3,331.2,73.7 M338.5,71.5h6.6
	c-0.1-2.5-1.5-3.8-3.2-3.8C339.8,67.7,338.7,69.2,338.5,71.5"/>
<path class="st0" d="M353,77.5h6.7c0.1,1.7,1.1,2.7,3,2.7c1.4,0,2.5-0.4,2.5-1.8c0-1.7-2.3-1.8-4.8-2.2c-3.3-0.5-7.1-1.6-7.1-6.7
	c0-4.2,4.1-6.6,8.9-6.6c5.9,0,9.1,2.3,9.3,6.4h-6.8c-0.2-1.5-1.3-2-2.5-2c-1.1,0-2.1,0.4-2.1,1.6c0,1.2,1.8,1.5,4,1.8
	c3.6,0.5,8.1,1.4,8.1,7.1c0,4.9-4.3,7.1-9.6,7.1C356.9,84.7,353.1,82.2,353,77.5"/>
<path class="st0" d="M373.1,77.5h6.7c0.1,1.7,1.1,2.7,3,2.7c1.4,0,2.5-0.4,2.5-1.8c0-1.7-2.3-1.8-4.8-2.2c-3.3-0.5-7.1-1.6-7.1-6.7
	c0-4.2,4.1-6.6,8.9-6.6c5.9,0,9.1,2.3,9.3,6.4h-6.8c-0.2-1.5-1.3-2-2.5-2c-1.1,0-2.1,0.4-2.1,1.6c0,1.2,1.8,1.5,4,1.8
	c3.6,0.5,8.1,1.4,8.1,7.1c0,4.9-4.3,7.1-9.6,7.1C376.9,84.7,373.1,82.2,373.1,77.5"/>
<polygon class="st0" points="415.7,63.4 412.9,74.8 412.9,74.8 410.2,63.4 403.9,63.4 401.3,74.7 401.2,74.7 398.4,63.4 391,63.4 
	397.3,84 404.1,84 406.9,72 407,72 409.8,84 416.8,84 423,63.4 "/>
<path class="st0" d="M421.8,73.7c0-6.4,4.3-10.9,10.4-10.9c3.1,0,5.4,1,7.2,2.7c2.4,2.3,3.5,5.9,3.4,10.2H429
	c0.3,2.6,1.5,3.9,3.7,3.9c1.3,0,2.4-0.6,2.8-2h7c-1.2,4.7-4.9,7.1-10,7.1C426.1,84.6,421.8,80.3,421.8,73.7 M429,71.5h6.6
	c-0.1-2.5-1.5-3.8-3.2-3.8C430.4,67.7,429.2,69.2,429,71.5"/>
<path class="st0" d="M443.7,73.7c0-6.4,4.3-10.9,10.4-10.9c3.1,0,5.4,1,7.2,2.7c2.4,2.3,3.5,5.9,3.4,10.2h-13.8
	c0.3,2.6,1.5,3.9,3.7,3.9c1.3,0,2.4-0.6,2.8-2h7c-1.2,4.7-4.9,7.1-10,7.1C448,84.6,443.7,80.3,443.7,73.7 M450.9,71.5h6.6
	c-0.1-2.5-1.5-3.8-3.2-3.8C452.3,67.7,451.1,69.2,450.9,71.5"/>
<path class="st1" d="M42,28.5h4.6c2.1,0,3.4-1.4,3.4-3.4c0-1.9-1.3-3.2-3.4-3.2H42V28.5z M33.5,14.9h13.3c3.7,0,6.4,1,8.3,2.7
	c2.1,1.8,3.2,4.5,3.2,7.7c0,5.6-4.1,9.8-10,9.8H42v8.8h-8.5V14.9z"/>
<path class="st1" d="M66.8,25.6h0.1c1.5-1.8,3.4-3,6.3-3c4.8,0,7.3,3.2,7.3,7.9v13.4h-7.7V32.4c0-2.1-0.9-3.6-2.9-3.6
	c-1.9,0-3.1,1.7-3.1,3.9v11.1h-7.7v-29h7.7V25.6z"/>
<path class="st1" d="M94.1,20.8h-5.1l2.5-5.6h7.4L94.1,20.8z M94.2,36.4v-1.8c-0.7,0.4-1.7,0.7-3,1c-2.2,0.5-2.9,1.1-2.9,2.4
	c0,1.4,1.1,2,2.4,2C92.5,39.9,94.2,38.9,94.2,36.4 M94.2,41.6L94.2,41.6c-1.5,1.9-3.6,2.8-6.3,2.8c-4,0-6.9-2.1-6.9-6.2
	c0-4.6,3.5-5.9,7.5-6.4c4.4-0.5,5.6-1,5.6-2.3c0-1.1-0.5-2-2.2-2c-1.7,0-2.5,1-2.7,2.5h-7.3c0.2-4.1,3.3-7.5,9.8-7.5
	c3.2,0,5.2,0.4,6.8,1.4c2.1,1.3,3.2,3.4,3.2,6.2v10.3c0,1.7,0.1,2.7,0.8,3.1v0.3h-7.5C94.6,43.4,94.3,42.8,94.2,41.6"/>
<path class="st1" d="M101.5,23.2h2.7v-6.7h7.5v6.7h3.9v4.6h-3.9v8.4c0,2.1,1.5,2.1,3.8,1.9v5.6c-1.2,0.3-2.4,0.5-3.8,0.5
	c-5,0-7.6-1.4-7.6-6.4V27.9h-2.7V23.2z"/>
<path class="st1" d="M119.3,23.2h2.7v-6.7h7.5v6.7h3.9v4.6h-3.9v8.4c0,2.1,1.5,2.1,3.9,1.9v5.6c-1.2,0.3-2.4,0.5-3.8,0.5
	c-5,0-7.6-1.4-7.6-6.4V27.9h-2.7V23.2z"/>
<path class="st1" d="M141.6,26.4h0.1c1.7-2.6,3.6-3.6,6.3-3.6c0.6,0,1,0.1,1.3,0.2v6.5h-0.2c-4.5-0.8-7.1,1.3-7.1,5.9v8.5h-7.7V23.2
	h7.3V26.4z"/>
<path class="st1" d="M150.9,23.2h7.7v20.7h-7.7V23.2z M150.9,15.6h7.7v5.1h-7.7V15.6z"/>
<path class="st1" d="M182,12.4c0,1.8-1.1,3.3-2.4,4.1h-4.1c1.5-1,1.9-2,1.9-2.8c0-0.6-0.4-1.3-1.5-1.3c-0.4,0-1,0-1.5,0.3V9.4
	c0.6-0.2,1.7-0.4,2.8-0.4C180.4,9,182,10.4,182,12.4 M166.7,31.4h7.1c-0.3-2.3-1.6-3.7-3.4-3.7C168.3,27.7,167.1,29.1,166.7,31.4
	 M178.1,21.2h-5.9l-1.8-2.2l-1.8,2.2h-5.9l4.4-5.6h6.6L178.1,21.2z M159.2,33.5c0-6.2,4.5-11,11-11c3.2,0,5.7,1.1,7.6,2.8
	c2.5,2.3,3.7,6,3.6,10.1h-14.8c0.4,2.4,1.7,3.9,4.1,3.9c1.3,0,2.3-0.5,2.9-1.5h7.4c-0.4,1.9-1.9,3.7-3.9,5c-1.9,1.2-4,1.7-6.6,1.7
	C163.7,44.5,159.2,39.9,159.2,33.5"/>
<path class="st1" d="M190,26.1h0.1c1.7-2.3,3.8-3.5,6.6-3.5c4.8,0,7.3,3.2,7.3,7.9v13.4h-7.7V32.4c0-2.1-0.9-3.6-2.9-3.6
	c-1.9,0-3.1,1.7-3.1,3.9v11.1h-7.7V23.2h7.3V26.1z"/>
<polygon class="st1" points="217.8,28.7 208.8,14.9 218.6,14.9 223.1,22.7 223.2,22.7 227.8,14.9 237,14.9 228.3,28.6 237.9,43.9 
	227.8,43.9 222.8,34.9 222.8,34.9 217.5,43.9 208,43.9 "/>
<path class="st1" d="M249.6,36.4v-1.8c-0.7,0.4-1.7,0.7-3,1c-2.2,0.5-2.9,1.1-2.9,2.4c0,1.4,1.1,2,2.4,2
	C247.9,39.9,249.6,38.9,249.6,36.4 M249.5,41.6L249.5,41.6c-1.5,1.9-3.6,2.8-6.3,2.8c-4,0-6.9-2.1-6.9-6.2c0-4.6,3.5-5.9,7.5-6.4
	c4.4-0.5,5.6-1,5.6-2.3c0-1.1-0.5-2-2.2-2s-2.5,1-2.7,2.5h-7.3c0.2-4.1,3.3-7.5,9.8-7.5c3.2,0,5.2,0.4,6.8,1.4
	c2.1,1.3,3.2,3.4,3.2,6.2v10.3c0,1.7,0.1,2.7,0.8,3.1v0.3h-7.5C249.9,43.4,249.7,42.8,249.5,41.6"/>
<path class="st1" d="M265.9,26.1h0.1c1.7-2.3,3.8-3.5,6.6-3.5c4.8,0,7.3,3.2,7.3,7.9v13.4h-7.7V32.4c0-2.1-0.9-3.6-2.9-3.6
	c-1.9,0-3.1,1.7-3.1,3.9v11.1h-7.7V23.2h7.3V26.1z"/>
<path class="st1" d="M289.2,25.6h0.1c1.5-1.8,3.4-3,6.3-3c4.8,0,7.3,3.2,7.3,7.9v13.4h-7.7V32.4c0-2.1-0.9-3.6-2.9-3.6
	c-1.9,0-3.1,1.7-3.1,3.9v11.1h-7.7v-29h7.7V25.6z"/>
</svg>
